<svg xmlns="http://www.w3.org/2000/svg" viewBox="0 0 980 760" role="img" aria-labelledby="title desc"><title id="title">Quadro elétrico moderno</title><desc id="desc">Ilustração azul e ciano de um quadro elétrico organizado com circuitos e iluminação.</desc><defs><linearGradient id="bg" x1="0" y1="0" x2="1" y2="1"><stop stop-color="#EAF6FF"/><stop offset="1" stop-color="#DCE9FF"/></linearGradient><linearGradient id="blue" x1="0" y1="0" x2="1" y2="1"><stop stop-color="#1457FF"/><stop offset="1" stop-color="#0B2E87"/></linearGradient></defs><rect width="980" height="760" rx="56" fill="url(#bg)"/><circle cx="830" cy="110" r="80" fill="#22D3EE" opacity=".25"/><circle cx="120" cy="640" r="110" fill="#1457FF" opacity=".08"/><g transform="translate(180 110)"><rect width="620" height="540" rx="38" fill="#fff"/><rect x="42" y="42" width="536" height="104" rx="24" fill="#F5F8FF"/><rect x="72" y="68" width="160" height="18" rx="9" fill="#1457FF"/><rect x="72" y="100" width="112" height="12" rx="6" fill="#AFC2E8"/><circle cx="528" cy="94" r="22" fill="#22D3EE"/><g transform="translate(48 190)"><g fill="#0B1533"><rect width="150" height="126" rx="24"/><rect x="187" width="150" height="126" rx="24"/><rect x="374" width="150" height="126" rx="24"/><rect y="154" width="150" height="126" rx="24"/><rect x="187" y="154" width="150" height="126" rx="24"/><rect x="374" y="154" width="150" height="126" rx="24"/></g><g fill="#22D3EE"><rect x="30" y="28" width="90" height="16" rx="8"/><rect x="217" y="28" width="90" height="16" rx="8"/><rect x="404" y="28" width="90" height="16" rx="8"/><rect x="30" y="182" width="90" height="16" rx="8"/><rect x="217" y="182" width="90" height="16" rx="8"/><rect x="404" y="182" width="90" height="16" rx="8"/></g></g></g><g transform="translate(725 525)"><circle cx="82" cy="82" r="78" fill="url(#blue)"/><path d="M92 25 50 88h33l-8 51 44-68H88z" fill="#fff"/></g></svg>
